<svg width="40" height="40" viewBox="0 0 40 40" fill="none" xmlns="http://www.w3.org/2000/svg">
<g id="call_icon">
<rect id="Rectangle Copy 4" width="40" height="40" rx="8" fill="url(#paint0_linear_0_642)"/>
<path id="Shape" fill-rule="evenodd" clip-rule="evenodd" d="M22.4396 11.3488C25.1276 12.2446 27.2356 14.3535 28.1316 17.0409L28.5836 18.3951L30.4806 17.7626L30.0296 16.4084C28.9346 13.1238 26.3566 10.5463 23.0726 9.4514L21.7176 9L21.0856 10.8974L22.4396 11.3488ZM15.2996 14.6865L12.1456 11.5329C11.6856 11.0726 10.9146 11.1679 10.5806 11.7265L10.2776 12.2329C8.15864 15.7734 8.71864 20.3011 11.6366 23.2186L16.0566 27.6386C18.7056 30.2877 22.7186 31.0187 26.1316 29.4739L27.5376 28.8375C28.1746 28.5493 28.3266 27.7136 27.8326 27.2194L24.7936 24.1811C24.4776 23.8647 23.9896 23.797 23.5986 24.0155L21.4436 25.221C21.0526 25.4395 20.5646 25.3718 20.2486 25.0554L14.4256 19.2324C14.1086 18.9159 14.0416 18.4277 14.2596 18.0371L15.4656 15.8818C15.6836 15.4912 15.6156 15.003 15.2996 14.6865ZM23.8946 19.2036C23.1126 17.638 21.8426 16.3685 20.2766 15.5857L21.1716 13.7969C23.1246 14.7732 24.7076 16.3565 25.6836 18.3091L23.8946 19.2036Z" fill="white"/>
</g>
<defs>
<linearGradient id="paint0_linear_0_642" x1="0" y1="0" x2="0" y2="40" gradientUnits="userSpaceOnUse">
<stop stop-color="#4FD1A2"/>
<stop offset="1" stop-color="#27A469"/>
</linearGradient>
</defs>
</svg>
