<svg width="152" height="128" viewBox="0 0 152 128" fill="none" xmlns="http://www.w3.org/2000/svg">
<path id="Combined Shape" fill-rule="evenodd" clip-rule="evenodd" d="M8 4C8 6.20914 6.20914 8 4 8C1.79086 8 0 6.20914 0 4C0 1.79086 1.79086 0 4 0C6.20914 0 8 1.79086 8 4ZM8 28C8 30.2091 6.20914 32 4 32C1.79086 32 0 30.2091 0 28C0 25.7909 1.79086 24 4 24C6.20914 24 8 25.7909 8 28ZM28 8C30.2091 8 32 6.20914 32 4C32 1.79086 30.2091 0 28 0C25.7909 0 24 1.79086 24 4C24 6.20914 25.7909 8 28 8ZM32 28C32 30.2091 30.2091 32 28 32C25.7909 32 24 30.2091 24 28C24 25.7909 25.7909 24 28 24C30.2091 24 32 25.7909 32 28ZM52 8C54.2091 8 56 6.20914 56 4C56 1.79086 54.2091 0 52 0C49.7909 0 48 1.79086 48 4C48 6.20914 49.7909 8 52 8ZM56 28C56 30.2091 54.2091 32 52 32C49.7909 32 48 30.2091 48 28C48 25.7909 49.7909 24 52 24C54.2091 24 56 25.7909 56 28ZM76 8C78.2091 8 80 6.20914 80 4C80 1.79086 78.2091 0 76 0C73.7909 0 72 1.79086 72 4C72 6.20914 73.7909 8 76 8ZM80 28C80 30.2091 78.2091 32 76 32C73.7909 32 72 30.2091 72 28C72 25.7909 73.7909 24 76 24C78.2091 24 80 25.7909 80 28ZM100 8C102.209 8 104 6.20914 104 4C104 1.79086 102.209 0 100 0C97.7909 0 96 1.79086 96 4C96 6.20914 97.7909 8 100 8ZM104 28C104 30.2091 102.209 32 100 32C97.7909 32 96 30.2091 96 28C96 25.7909 97.7909 24 100 24C102.209 24 104 25.7909 104 28ZM124 8C126.209 8 128 6.20914 128 4C128 1.79086 126.209 0 124 0C121.791 0 120 1.79086 120 4C120 6.20914 121.791 8 124 8ZM128 28C128 30.2091 126.209 32 124 32C121.791 32 120 30.2091 120 28C120 25.7909 121.791 24 124 24C126.209 24 128 25.7909 128 28ZM148 8C150.209 8 152 6.20914 152 4C152 1.79086 150.209 0 148 0C145.791 0 144 1.79086 144 4C144 6.20914 145.791 8 148 8ZM152 28C152 30.2091 150.209 32 148 32C145.791 32 144 30.2091 144 28C144 25.7909 145.791 24 148 24C150.209 24 152 25.7909 152 28ZM4 56C6.20914 56 8 54.2091 8 52C8 49.7909 6.20914 48 4 48C1.79086 48 0 49.7909 0 52C0 54.2091 1.79086 56 4 56ZM32 52C32 54.2091 30.2091 56 28 56C25.7909 56 24 54.2091 24 52C24 49.7909 25.7909 48 28 48C30.2091 48 32 49.7909 32 52ZM52 56C54.2091 56 56 54.2091 56 52C56 49.7909 54.2091 48 52 48C49.7909 48 48 49.7909 48 52C48 54.2091 49.7909 56 52 56ZM80 52C80 54.2091 78.2091 56 76 56C73.7909 56 72 54.2091 72 52C72 49.7909 73.7909 48 76 48C78.2091 48 80 49.7909 80 52ZM100 56C102.209 56 104 54.2091 104 52C104 49.7909 102.209 48 100 48C97.7909 48 96 49.7909 96 52C96 54.2091 97.7909 56 100 56ZM128 52C128 54.2091 126.209 56 124 56C121.791 56 120 54.2091 120 52C120 49.7909 121.791 48 124 48C126.209 48 128 49.7909 128 52ZM148 56C150.209 56 152 54.2091 152 52C152 49.7909 150.209 48 148 48C145.791 48 144 49.7909 144 52C144 54.2091 145.791 56 148 56ZM8 76C8 78.2091 6.20914 80 4 80C1.79086 80 0 78.2091 0 76C0 73.7909 1.79086 72 4 72C6.20914 72 8 73.7909 8 76ZM28 80C30.2091 80 32 78.2091 32 76C32 73.7909 30.2091 72 28 72C25.7909 72 24 73.7909 24 76C24 78.2091 25.7909 80 28 80ZM56 76C56 78.2091 54.2091 80 52 80C49.7909 80 48 78.2091 48 76C48 73.7909 49.7909 72 52 72C54.2091 72 56 73.7909 56 76ZM76 80C78.2091 80 80 78.2091 80 76C80 73.7909 78.2091 72 76 72C73.7909 72 72 73.7909 72 76C72 78.2091 73.7909 80 76 80ZM104 76C104 78.2091 102.209 80 100 80C97.7909 80 96 78.2091 96 76C96 73.7909 97.7909 72 100 72C102.209 72 104 73.7909 104 76ZM124 80C126.209 80 128 78.2091 128 76C128 73.7909 126.209 72 124 72C121.791 72 120 73.7909 120 76C120 78.2091 121.791 80 124 80ZM152 76C152 78.2091 150.209 80 148 80C145.791 80 144 78.2091 144 76C144 73.7909 145.791 72 148 72C150.209 72 152 73.7909 152 76ZM4 104C6.20914 104 8 102.209 8 100C8 97.7909 6.20914 96 4 96C1.79086 96 0 97.7909 0 100C0 102.209 1.79086 104 4 104ZM32 100C32 102.209 30.2091 104 28 104C25.7909 104 24 102.209 24 100C24 97.7909 25.7909 96 28 96C30.2091 96 32 97.7909 32 100ZM52 104C54.2091 104 56 102.209 56 100C56 97.7909 54.2091 96 52 96C49.7909 96 48 97.7909 48 100C48 102.209 49.7909 104 52 104ZM80 100C80 102.209 78.2091 104 76 104C73.7909 104 72 102.209 72 100C72 97.7909 73.7909 96 76 96C78.2091 96 80 97.7909 80 100ZM100 104C102.209 104 104 102.209 104 100C104 97.7909 102.209 96 100 96C97.7909 96 96 97.7909 96 100C96 102.209 97.7909 104 100 104ZM128 100C128 102.209 126.209 104 124 104C121.791 104 120 102.209 120 100C120 97.7909 121.791 96 124 96C126.209 96 128 97.7909 128 100ZM148 104C150.209 104 152 102.209 152 100C152 97.7909 150.209 96 148 96C145.791 96 144 97.7909 144 100C144 102.209 145.791 104 148 104ZM8 124C8 126.209 6.20914 128 4 128C1.79086 128 0 126.209 0 124C0 121.791 1.79086 120 4 120C6.20914 120 8 121.791 8 124ZM28 128C30.2091 128 32 126.209 32 124C32 121.791 30.2091 120 28 120C25.7909 120 24 121.791 24 124C24 126.209 25.7909 128 28 128ZM56 124C56 126.209 54.2091 128 52 128C49.7909 128 48 126.209 48 124C48 121.791 49.7909 120 52 120C54.2091 120 56 121.791 56 124ZM76 128C78.2091 128 80 126.209 80 124C80 121.791 78.2091 120 76 120C73.7909 120 72 121.791 72 124C72 126.209 73.7909 128 76 128ZM104 124C104 126.209 102.209 128 100 128C97.7909 128 96 126.209 96 124C96 121.791 97.7909 120 100 120C102.209 120 104 121.791 104 124ZM124 128C126.209 128 128 126.209 128 124C128 121.791 126.209 120 124 120C121.791 120 120 121.791 120 124C120 126.209 121.791 128 124 128ZM152 124C152 126.209 150.209 128 148 128C145.791 128 144 126.209 144 124C144 121.791 145.791 120 148 120C150.209 120 152 121.791 152 124Z" fill="#D8D8D8"/>
</svg>
