<svg xmlns="http://www.w3.org/2000/svg" width="64" height="64" viewBox="0 0 64 64" fill="none">
  <rect width="64" height="64" rx="8" fill="#27A469" fill-opacity="0.1"/>
  <path fill-rule="evenodd" clip-rule="evenodd" d="M18.8432 15.9629H45.0932C47.5094 15.9629 49.4682 17.9216 49.4682 20.3379V42.4117C49.4682 44.828 47.5094 46.7867 45.0932 46.7867H35.4682L32.8064 49.9627C32.3693 50.4843 31.5671 50.4843 31.13 49.9627L28.4682 46.7867H18.8432C16.427 46.7867 14.4682 44.828 14.4682 42.4117V20.3379C14.4682 17.9216 16.427 15.9629 18.8432 15.9629ZM27.0463 26.9004C27.9524 26.9004 28.687 26.1659 28.687 25.2598C28.687 24.3537 27.9524 23.6191 27.0463 23.6191C26.1403 23.6191 25.4057 24.3537 25.4057 25.2598C25.4057 26.1659 26.1403 26.9004 27.0463 26.9004ZM24.0332 32.7335C23.6303 32.2834 22.9389 32.245 22.4888 32.6479C22.0387 33.0508 22.0004 33.7422 22.4032 34.1923C24.9267 37.0119 27.6595 38.9316 31.9682 38.9316C36.2769 38.9316 39.0097 37.0119 41.5332 34.1923C41.9361 33.7422 41.8977 33.0508 41.4476 32.6479C40.9975 32.245 40.3061 32.2834 39.9032 32.7335C37.6202 35.2842 35.4339 36.7441 31.9682 36.7441C28.5025 36.7441 26.3162 35.2842 24.0332 32.7335ZM38.5307 25.2598C38.5307 26.1659 37.7961 26.9004 36.8901 26.9004C35.984 26.9004 35.2495 26.1659 35.2495 25.2598C35.2495 24.3537 35.984 23.6191 36.8901 23.6191C37.7961 23.6191 38.5307 24.3537 38.5307 25.2598Z" fill="url(#paint0_linear_0_101)"/>
  <defs>
    <linearGradient id="paint0_linear_0_101" x1="14.4682" y1="15.9629" x2="14.4682" y2="50.3539" gradientUnits="userSpaceOnUse">
      <stop stop-color="#06C66C"/>
      <stop offset="1" stop-color="#27A469"/>
    </linearGradient>
  </defs>
</svg>