<svg width="64" height="64" viewBox="0 0 64 64" fill="none" xmlns="http://www.w3.org/2000/svg">
<g id="Group 2">
<rect id="Rectangle" x="0.5" y="0.5" width="63" height="63" rx="7.5" stroke="white"/>
<g id="Group">
<path id="Shape" fill-rule="evenodd" clip-rule="evenodd" d="M18.8433 15.9629H45.0933C47.5095 15.9629 49.4683 17.9216 49.4683 20.3379V42.4117C49.4683 44.828 47.5095 46.7867 45.0933 46.7867H35.4683L32.8065 49.9627C32.3693 50.4843 31.5672 50.4843 31.13 49.9627L28.4683 46.7867H18.8433C16.427 46.7867 14.4683 44.828 14.4683 42.4117V20.3379C14.4683 17.9216 16.427 15.9629 18.8433 15.9629ZM27.0464 26.9004C27.9524 26.9004 28.687 26.1659 28.687 25.2598C28.687 24.3537 27.9524 23.6191 27.0464 23.6191C26.1403 23.6191 25.4058 24.3537 25.4058 25.2598C25.4058 26.1659 26.1403 26.9004 27.0464 26.9004ZM24.0333 32.7335C23.6304 32.2834 22.9389 32.245 22.4888 32.6479C22.0387 33.0508 22.0004 33.7422 22.4033 34.1923C24.9268 37.0119 27.6595 38.9316 31.9683 38.9316C36.277 38.9316 39.0097 37.0119 41.5332 34.1923C41.9362 33.7422 41.8978 33.0508 41.4477 32.6479C40.9976 32.245 40.3061 32.2834 39.9033 32.7335C37.6202 35.2842 35.4339 36.7441 31.9683 36.7441C28.5026 36.7441 26.3163 35.2842 24.0333 32.7335ZM38.5308 25.2598C38.5308 26.1659 37.7962 26.9004 36.8901 26.9004C35.9841 26.9004 35.2495 26.1659 35.2495 25.2598C35.2495 24.3537 35.9841 23.6191 36.8901 23.6191C37.7962 23.6191 38.5308 24.3537 38.5308 25.2598Z" fill="white"/>
</g>
</g>
</svg>
