<svg width="64" height="64" viewBox="0 0 64 64" fill="none" xmlns="http://www.w3.org/2000/svg">
<g id="Group 2">
<rect id="Rectangle" x="0.5" y="0.5" width="63" height="63" rx="7.5" stroke="white"/>
<g id="Group">
<path id="Shape" fill-rule="evenodd" clip-rule="evenodd" d="M13.9558 46.7855V17.1037C13.9558 15.9583 15.3407 15.3847 16.1507 16.1946L19.0987 19.1426L22.0663 15.1857C22.5358 14.5598 23.4508 14.4947 24.0041 15.048L28.0987 19.1426L32.1933 15.048C32.7465 14.4947 33.6616 14.5598 34.131 15.1857L37.0987 19.1426L40.0467 16.1946C40.8567 15.3847 42.2415 15.9583 42.2415 17.1037V37.1426H48.6701C49.3802 37.1426 49.9558 37.7182 49.9558 38.4283V42.2855C49.9558 46.546 46.502 49.9998 42.2415 49.9998H17.1701C15.3949 49.9998 13.9558 48.5607 13.9558 46.7855ZM25.2041 29.8616C24.7333 29.3301 23.9207 29.2807 23.3891 29.7516C22.8575 30.2223 22.8082 31.035 23.279 31.5665L25.6945 34.2939C25.9295 34.5592 26.2637 34.7158 26.618 34.7266C26.9724 34.7373 27.3154 34.6013 27.5661 34.3506L33.0209 28.8958C33.5231 28.3937 33.5231 27.5796 33.0209 27.0775C32.5188 26.5754 31.7047 26.5754 31.2026 27.0775L26.7138 31.5664L25.2041 29.8616ZM47.3844 39.7141H42.2415V47.4283C45.0818 47.4283 47.3844 45.1258 47.3844 42.2855V39.7141Z" fill="white"/>
</g>
</g>
</svg>
