<svg xmlns="http://www.w3.org/2000/svg" width="64" height="64" viewBox="0 0 64 64" fill="none">
  <rect width="64" height="64" rx="8" fill="#0091FF" fill-opacity="0.1"/>
  <path fill-rule="evenodd" clip-rule="evenodd" d="M13.9559 46.7855V17.1037C13.9559 15.9583 15.3408 15.3847 16.1507 16.1946L19.0987 19.1426L22.0664 15.1857C22.5359 14.5598 23.4509 14.4947 24.0041 15.048L28.0987 19.1426L32.1933 15.048C32.7466 14.4947 33.6616 14.5598 34.1311 15.1857L37.0987 19.1426L40.0468 16.1946C40.8568 15.3847 42.2416 15.9583 42.2416 17.1037V37.1426H48.6702C49.3803 37.1426 49.9559 37.7182 49.9559 38.4283V42.2855C49.9559 46.546 46.5021 49.9998 42.2416 49.9998H17.1702C15.395 49.9998 13.9559 48.5607 13.9559 46.7855ZM25.2041 29.8616C24.7333 29.3301 23.9208 29.2807 23.3892 29.7516C22.8576 30.2223 22.8083 31.035 23.2791 31.5665L25.6945 34.2939C25.9296 34.5592 26.2638 34.7158 26.6181 34.7266C26.9725 34.7373 27.3155 34.6013 27.5662 34.3506L33.021 28.8958C33.5232 28.3937 33.5232 27.5796 33.021 27.0775C32.5189 26.5754 31.7048 26.5754 31.2027 27.0775L26.7139 31.5664L25.2041 29.8616ZM47.3845 39.7141H42.2416V47.4283C45.0819 47.4283 47.3845 45.1258 47.3845 42.2855V39.7141Z" fill="url(#paint0_linear_0_112)"/>
  <defs>
    <linearGradient id="paint0_linear_0_112" x1="13.9559" y1="14.6714" x2="13.9559" y2="49.9998" gradientUnits="userSpaceOnUse">
      <stop stop-color="#00C4FF"/>
      <stop offset="1" stop-color="#0091FF"/>
    </linearGradient>
  </defs>
</svg>