<svg width="64" height="64" viewBox="0 0 64 64" fill="none" xmlns="http://www.w3.org/2000/svg">
<g id="Group 2">
<rect id="Rectangle" x="0.5" y="0.5" width="63" height="63" rx="7.5" stroke="white"/>
<g id="Group">
<path id="Shape" fill-rule="evenodd" clip-rule="evenodd" d="M49.2456 19.4464V44.9164C49.2456 45.7167 48.5969 46.3654 47.7966 46.3654H46.3475C45.5472 46.3654 44.8985 45.7167 44.8985 44.9164V18.8333C44.8985 18.033 44.2497 17.3843 43.4494 17.3843H21.7135C20.9132 17.3843 20.2645 16.7355 20.2645 15.9352V14.4862C20.2645 13.6859 20.9132 13.0371 21.7135 13.0371H41.1952H47.7966C48.5969 13.0371 49.2456 13.6859 49.2456 14.4862V19.4464ZM15.9173 50.7126C15.117 50.7126 14.4683 50.0638 14.4683 49.2635V20.2824C14.4683 19.4821 15.117 18.8333 15.9173 18.8333H35.399H42.0003C42.8007 18.8333 43.4494 19.4821 43.4494 20.2824V24.964V49.2635C43.4494 50.0638 42.8007 50.7126 42.0003 50.7126H15.9173ZM20.2645 43.4673C20.2645 44.2676 20.9132 44.9164 21.7135 44.9164H36.2041C37.0044 44.9164 37.6532 44.2676 37.6532 43.4673C37.6532 42.667 37.0044 42.0182 36.2041 42.0182H21.7135C20.9133 42.0182 20.2645 42.667 20.2645 43.4673ZM36.2041 26.0786C36.8378 26.5674 36.9552 27.4774 36.4664 28.1111L29.5266 37.1071C29.286 37.4189 28.929 37.6193 28.5376 37.6624C28.1462 37.7054 27.7541 37.5873 27.4515 37.3352L23.3481 33.9157C22.7333 33.4033 22.6503 32.4897 23.1626 31.8748C23.675 31.26 24.5886 31.177 25.2035 31.6894L26.9951 33.1823C27.6263 33.7083 28.5682 33.6047 29.07 32.9541L34.1717 26.3409C34.6606 25.7072 35.5704 25.5899 36.2041 26.0786Z" fill="white"/>
</g>
</g>
</svg>
