<svg xmlns="http://www.w3.org/2000/svg" width="64" height="64" viewBox="0 0 64 64" fill="none">
  <rect width="64" height="64" rx="8" fill="#6437FF" fill-opacity="0.1"/>
  <path fill-rule="evenodd" clip-rule="evenodd" d="M49.2456 19.4464V44.9164C49.2456 45.7167 48.5968 46.3654 47.7965 46.3654H46.3474C45.5471 46.3654 44.8984 45.7167 44.8984 44.9164V18.8333C44.8984 18.033 44.2496 17.3843 43.4493 17.3843H21.7135C20.9132 17.3843 20.2644 16.7355 20.2644 15.9352V14.4862C20.2644 13.6859 20.9132 13.0371 21.7135 13.0371H41.1952H47.7965C48.5968 13.0371 49.2456 13.6859 49.2456 14.4862V19.4464ZM15.9173 50.7126C15.117 50.7126 14.4682 50.0638 14.4682 49.2635V20.2824C14.4682 19.4821 15.117 18.8333 15.9173 18.8333H35.399H42.0003C42.8006 18.8333 43.4493 19.4821 43.4493 20.2824V24.964V49.2635C43.4493 50.0638 42.8006 50.7126 42.0003 50.7126H15.9173ZM20.2644 43.4673C20.2644 44.2676 20.9132 44.9164 21.7135 44.9164H36.2041C37.0044 44.9164 37.6531 44.2676 37.6531 43.4673C37.6531 42.667 37.0044 42.0182 36.2041 42.0182H21.7135C20.9132 42.0182 20.2644 42.667 20.2644 43.4673ZM36.204 26.0786C36.8377 26.5674 36.9551 27.4774 36.4663 28.1111L29.5265 37.1071C29.286 37.4189 28.9289 37.6193 28.5375 37.6624C28.1461 37.7054 27.754 37.5873 27.4515 37.3352L23.348 33.9157C22.7333 33.4033 22.6502 32.4897 23.1625 31.8748C23.6749 31.26 24.5886 31.177 25.2034 31.6894L26.995 33.1823C27.6262 33.7083 28.5681 33.6047 29.0699 32.9541L34.1716 26.3409C34.6605 25.7072 35.5704 25.5899 36.204 26.0786Z" fill="url(#paint0_linear_0_89)"/>
  <defs>
    <linearGradient id="paint0_linear_0_89" x1="14.4682" y1="13.0371" x2="14.4682" y2="50.7126" gradientUnits="userSpaceOnUse">
      <stop stop-color="#9B66FF"/>
      <stop offset="1" stop-color="#6236FF"/>
    </linearGradient>
  </defs>
</svg>