<svg width="26" height="26" viewBox="0 0 26 26" fill="none" xmlns="http://www.w3.org/2000/svg">
<path id="Shape" fill-rule="evenodd" clip-rule="evenodd" d="M20 7.1711C20 10.305 15.6169 16.9607 13.7874 19.602C13.4018 20.159 12.5982 20.159 12.2126 19.602C10.3831 16.9607 6 10.305 6 7.1711C6 3.2106 9.134 0 13 0C16.866 0 20 3.2106 20 7.1711ZM13 5.1433C11.9283 5.1433 11 6.0534 11 7.2508C11 8.4482 11.9283 9.3583 13 9.3583C14.0717 9.3583 15 8.4482 15 7.2508C15 6.0534 14.0717 5.1433 13 5.1433ZM9 7.2508C9 5.0158 10.758 3.1433 13 3.1433C15.242 3.1433 17 5.0158 17 7.2508C17 9.4858 15.242 11.3583 13 11.3583C10.758 11.3583 9 9.4858 9 7.2508ZM2 20C2 19.588 2.2409 19.058 2.9868 18.465C3.7252 17.8779 4.8459 17.3283 6.2871 16.8963L5.7129 14.9805C4.126 15.4561 2.7467 16.1008 1.7421 16.8994C0.745 17.6921 0 18.7388 0 20C0 21.039 0.5095 21.938 1.2412 22.659C1.9695 23.376 2.972 23.976 4.1301 24.459C6.4507 25.426 9.5873 26 13 26C16.4127 26 19.5493 25.426 21.87 24.459C23.028 23.976 24.031 23.376 24.759 22.659C25.491 21.938 26 21.039 26 20C26 18.7388 25.255 17.6921 24.258 16.8994C23.253 16.1008 21.874 15.4561 20.287 14.9805L19.7129 16.8963C21.154 17.3283 22.275 17.8779 23.013 18.465C23.759 19.058 24 19.588 24 20C24 20.342 23.838 20.758 23.355 21.234C22.869 21.713 22.114 22.19 21.101 22.612C19.0781 23.455 16.2147 24 13 24C9.7853 24 6.9219 23.455 4.8993 22.612C3.8859 22.19 3.131 21.713 2.6448 21.234C2.1621 20.758 2 20.342 2 20Z" fill="white"/>
</svg>
