<svg width="64" height="64" viewBox="0 0 64 64" fill="none" xmlns="http://www.w3.org/2000/svg">
<g id="icon/websitedevelopment">
<g id="Group 2">
<rect id="Rectangle" width="64" height="64" rx="8" fill="url(#paint0_linear_0_128)"/>
<g id="graphic-design">
<path id="Shape" fill-rule="evenodd" clip-rule="evenodd" d="M14.4682 40.0918C14.4693 41.0596 15.2536 41.8439 16.2214 41.845H28.9495L28.0145 46.5201H26.1561C25.8333 46.5201 25.5717 46.7818 25.5717 47.1045V49.4421C25.5717 49.7648 25.8333 50.0265 26.1561 50.0265H37.8439C38.1667 50.0265 38.4283 49.7648 38.4283 49.4421V47.1045C38.4283 46.7818 38.1667 46.5201 37.8439 46.5201H35.9855L35.0505 41.845H47.7786C48.7464 41.8439 49.5307 41.0596 49.5318 40.0918V16.7161C49.5307 15.7483 48.7464 14.964 47.7786 14.9629H16.2214C15.2536 14.964 14.4693 15.7483 14.4682 16.7161V40.0918ZM37.2595 48.8577H26.7405V47.6889H37.2595V48.8577ZM29.2065 46.5201H34.7935L33.8584 41.845H30.1416L29.2065 46.5201ZM47.7786 40.6762H16.2214C15.8988 40.6758 15.6373 40.4144 15.637 40.0918V37.1698H48.363V40.0918C48.3626 40.4144 48.1012 40.6758 47.7786 40.6762ZM47.7786 16.1317H16.2214C15.8988 16.132 15.6373 16.3935 15.637 16.7161V36.001H48.363V16.7161C48.3626 16.3935 48.1012 16.132 47.7786 16.1317Z" fill="white"/>
<path id="Path" d="M33.7532 38.3389H30.2468C29.9241 38.3389 29.6624 38.6005 29.6624 38.9233C29.6624 39.246 29.9241 39.5077 30.2468 39.5077H33.7532C34.0759 39.5077 34.3376 39.246 34.3376 38.9233C34.3376 38.6005 34.0759 38.3389 33.7532 38.3389Z" fill="white"/>
<path id="Shape_2" fill-rule="evenodd" clip-rule="evenodd" d="M35.4058 21.9757H36.0907C36.4135 21.9757 36.6751 22.2373 36.6751 22.5601C36.6751 22.8828 36.4135 23.1445 36.0907 23.1445H35.4058C35.158 23.8446 34.4958 24.3126 33.7532 24.3126C33.0105 24.3126 32.3484 23.8446 32.1005 23.1445H27.9092C27.5865 23.1445 27.3248 22.8828 27.3248 22.5601C27.3248 22.2373 27.5865 21.9757 27.9092 21.9757H32.1005C32.3484 21.2756 33.0105 20.8076 33.7532 20.8076C34.4958 20.8076 35.158 21.2756 35.4058 21.9757ZM33.1688 22.5601C33.1688 22.8828 33.4304 23.1445 33.7532 23.1445C34.0758 23.1441 34.3372 22.8827 34.3375 22.5601C34.3375 22.2373 34.0759 21.9757 33.7532 21.9757C33.4304 21.9757 33.1688 22.2373 33.1688 22.5601Z" fill="white"/>
<path id="Shape_3" fill-rule="evenodd" clip-rule="evenodd" d="M31.8995 25.4816H36.0907C36.4135 25.4816 36.6751 25.7432 36.6751 26.066C36.6751 26.3887 36.4135 26.6503 36.0907 26.6503H31.8995C31.6516 27.3505 30.9895 27.8184 30.2468 27.8184C29.5041 27.8184 28.842 27.3505 28.5941 26.6503H27.9092C27.5865 26.6503 27.3248 26.3887 27.3248 26.066C27.3248 25.7432 27.5865 25.4816 27.9092 25.4816H28.5941C28.842 24.7814 29.5041 24.3135 30.2468 24.3135C30.9895 24.3135 31.6516 24.7814 31.8995 25.4816ZM29.6624 26.066C29.6624 26.3887 29.924 26.6503 30.2468 26.6503C30.5694 26.65 30.8308 26.3886 30.8312 26.066C30.8312 25.7432 30.5695 25.4816 30.2468 25.4816C29.924 25.4816 29.6624 25.7432 29.6624 26.066Z" fill="white"/>
<path id="Shape_4" fill-rule="evenodd" clip-rule="evenodd" d="M35.4058 28.9884H36.0907C36.4135 28.9884 36.6751 29.25 36.6751 29.5728C36.6751 29.8955 36.4135 30.1572 36.0907 30.1572H35.4058C35.158 30.8573 34.4958 31.3253 33.7532 31.3253C33.0105 31.3253 32.3484 30.8573 32.1005 30.1572H27.9092C27.5865 30.1572 27.3248 29.8955 27.3248 29.5728C27.3248 29.25 27.5865 28.9884 27.9092 28.9884H32.1005C32.3484 28.2883 33.0105 27.8203 33.7532 27.8203C34.4958 27.8203 35.158 28.2883 35.4058 28.9884ZM33.1688 29.5728C33.1688 29.8955 33.4304 30.1572 33.7532 30.1572C34.0758 30.1568 34.3372 29.8954 34.3375 29.5728C34.3375 29.25 34.0759 28.9884 33.7532 28.9884C33.4304 28.9884 33.1688 29.25 33.1688 29.5728Z" fill="white"/>
</g>
</g>
</g>
<defs>
<linearGradient id="paint0_linear_0_128" x1="5.86752" y1="11.735" x2="5.86752" y2="64" gradientUnits="userSpaceOnUse">
<stop stop-color="#94B3FF"/>
<stop offset="1" stop-color="#5B7CFD"/>
</linearGradient>
</defs>
</svg>
