<svg width="64" height="64" viewBox="0 0 64 64" fill="none" xmlns="http://www.w3.org/2000/svg">
<g id="icon/websitedevelopment">
<g id="Group 3">
<g id="icon/brand_identity">
<g id="Group 2">
<rect id="Rectangle" width="64" height="64" rx="8" fill="url(#paint0_linear_0_180)"/>
</g>
</g>
<g id="color-palette">
<path id="Shape" fill-rule="evenodd" clip-rule="evenodd" d="M42.5509 28.6084L34.9158 36.2437H45.7314C46.7563 36.2437 47.5904 37.0779 47.5904 38.1027V45.1097C47.5904 46.1345 46.7564 46.9687 45.7314 46.9687C45.7314 46.9687 21.7345 46.9653 21.6137 46.9574C18.8063 46.7755 16.6071 44.3532 16.6071 41.443V17.8444C16.6071 16.8195 17.4412 15.9854 18.4661 15.9854H25.4731C26.4979 15.9854 27.3321 16.8195 27.3321 17.8444V28.6599L34.9674 21.0249C35.6921 20.2996 36.8718 20.3002 37.5965 21.0249L42.5509 25.9793C43.2758 26.704 43.2758 27.8837 42.5509 28.6084ZM36.754 21.8674C36.4945 21.6076 36.0706 21.6076 35.8099 21.8674L27.3321 30.3436V32.0304L35.018 24.3445C35.2507 24.1118 35.6279 24.1118 35.8605 24.3445L39.2313 27.7152C39.464 27.9479 39.464 28.3251 39.2313 28.5577L31.5454 36.2437L33.2348 36.2397L41.7083 27.7659C41.9684 27.5055 41.9684 27.0822 41.7083 26.8218L36.754 21.8674ZM30.3833 30.6642L32.9116 33.1924L31.2264 34.8776L28.6982 32.3493L30.3833 30.6642ZM35.4396 30.6645L32.9113 28.1362L31.226 29.8215L33.7543 32.3498L35.4396 30.6645ZM36.2821 29.822L33.7538 27.2937L35.4391 25.6084L37.9674 28.1366L36.2821 29.822ZM27.3341 33.7128C27.3334 33.7131 27.3327 33.7135 27.3321 33.7141V36.2437H29.8617C29.8621 36.2433 29.8624 36.2429 29.8626 36.2424C29.8628 36.2422 29.8629 36.2419 29.863 36.2417L29.8634 36.2409L29.8644 36.2397L30.3838 35.7203L27.8555 33.192L27.3361 33.7114C27.3355 33.712 27.3348 33.7124 27.3341 33.7128ZM17.7987 41.443V17.8444C17.7987 17.4764 18.0981 17.177 18.4661 17.177H25.4729C25.841 17.177 26.1402 17.4764 26.1402 17.8444V41.6062C26.1402 42.7714 25.6718 43.8525 24.8212 44.6497C23.9717 45.4467 22.8577 45.8454 21.6904 45.7681C19.5083 45.6266 17.7987 43.7268 17.7987 41.443ZM45.7314 45.777C46.0993 45.777 46.3988 45.4778 46.3988 45.1097V38.1027C46.3988 37.7348 46.0995 37.4354 45.7314 37.4354H27.3321V41.6062C27.3321 43.0827 26.7142 44.5088 25.6365 45.5191C25.5391 45.6104 25.4367 45.6939 25.3342 45.777H45.7314Z" fill="white"/>
<path id="Shape_2" fill-rule="evenodd" clip-rule="evenodd" d="M21.9696 39.2227C23.2837 39.2227 24.3529 40.2919 24.3529 41.606C24.3529 42.9201 23.2837 43.9893 21.9696 43.9893C20.6555 43.9893 19.5862 42.9201 19.5862 41.606C19.5862 40.2919 20.6555 39.2227 21.9696 39.2227ZM21.9696 40.4143C21.3124 40.4143 20.7779 40.9488 20.7779 41.606C20.7779 42.2632 21.3124 42.7977 21.9696 42.7977C22.6268 42.7977 23.1612 42.2632 23.1612 41.606C23.1612 40.9488 22.6268 40.4143 21.9696 40.4143Z" fill="white"/>
</g>
</g>
</g>
<defs>
<linearGradient id="paint0_linear_0_180" x1="-9.67426" y1="0" x2="-9.67426" y2="83.3485" gradientUnits="userSpaceOnUse">
<stop stop-color="#FCB33A"/>
<stop offset="1" stop-color="#F1853D"/>
</linearGradient>
</defs>
</svg>
