<svg width="64" height="64" viewBox="0 0 64 64" fill="none" xmlns="http://www.w3.org/2000/svg">
<g id="icon/websitedevelopment">
<g id="Group 2">
<rect id="Rectangle" width="64" height="64" rx="8" fill="url(#paint0_linear_0_153)"/>
<g id="smartphone">
<path id="Shape" fill-rule="evenodd" clip-rule="evenodd" d="M43.208 31.8333H50.8333C51.4777 31.8333 52 32.3557 52 33V41.1667C52 41.811 51.4777 42.3333 50.8333 42.3333H38V48.1667C38 49.4553 36.9553 50.5 35.6667 50.5H19.3333C18.0447 50.5 17 49.4553 17 48.1667V17.8333C17 16.5447 18.0447 15.5 19.3333 15.5H35.6667C36.9553 15.5 38 16.5447 38 17.8333V22.2206L41.2608 19.0047C41.478 18.7891 41.7715 18.6681 42.0775 18.6681H42.0833C42.3936 18.6686 42.6906 18.7934 42.9082 19.0146L48.6441 24.8281C49.0965 25.2867 49.0915 26.0252 48.633 26.4777L45.3127 29.7555L43.208 31.8333ZM45.5833 41.1667V33H42.025L41.5758 33.4445L41.5 33.5198V41.1667H45.5833ZM36.25 41.1667V38.7021L37.8407 37.1318L40.3333 34.6712V41.1667H36.25ZM34.1051 40.8196C33.9795 40.9425 33.8498 41.0582 33.716 41.1667H35.0833V39.8536L34.1051 40.8196ZM37.818 24.04L37.8361 24.0219L38.3418 23.5226L44.0789 29.3349L41.3763 32.0025L41.3717 32.0066L41.1727 32.2032L35.4333 26.3914L37.818 24.04ZM40.3427 33.0228L34.6056 27.211L31.7 30.0793L37.4365 35.891L40.3427 33.0228ZM30.8693 30.9L36.6064 36.7123L35.2648 38.0347L35.2449 38.054L33.2832 39.9901C31.6715 41.5305 29.1221 41.4935 27.5558 39.9068C25.9896 38.3202 25.9855 35.7706 27.5467 34.1789L30.8693 30.9ZM47.8152 25.6465L42.0781 19.8348L39.1725 22.703L44.909 28.5148L47.8152 25.6465ZM31.987 16.6667L31.2392 17.4647C31.0181 17.6996 30.71 17.8329 30.3875 17.8333H24.6125C24.29 17.8333 23.982 17.6999 23.7614 17.4647L23.0136 16.6667H31.987ZM19.3333 49.3333H35.6667C36.311 49.3333 36.8333 48.811 36.8333 48.1667V47.259C36.4802 47.469 36.0775 47.5809 35.6667 47.5833H19.3333C18.9225 47.5809 18.5198 47.469 18.1667 47.259V48.1667C18.1667 48.811 18.689 49.3333 19.3333 49.3333ZM36.8333 45.25C36.8333 45.8943 36.311 46.4167 35.6667 46.4167H19.3333C18.689 46.4167 18.1667 45.8943 18.1667 45.25V17.8333C18.1667 17.189 18.689 16.6667 19.3333 16.6667H21.4141L22.9103 18.2621C23.3518 18.7321 23.9677 18.9991 24.6125 19H30.3875C31.0323 18.9988 31.6482 18.7321 32.0903 18.2627L33.5859 16.6667H35.6667C36.311 16.6667 36.8333 17.189 36.8333 17.8333V23.375L26.7283 33.35C25.2133 34.843 24.7497 37.1028 25.5543 39.0717C26.359 41.0406 28.2728 42.3288 30.3998 42.3333C30.4041 42.3333 30.4081 42.3353 30.4123 42.3363C30.4137 42.3366 30.4152 42.3368 30.4167 42.3368H36.8333V45.25ZM46.75 41.1667H50.8333V33H46.75V41.1667Z" fill="white"/>
<path id="Shape_2" fill-rule="evenodd" clip-rule="evenodd" d="M32.1667 37.083C32.1667 38.0495 31.3832 38.833 30.4167 38.833C29.4502 38.833 28.6667 38.0495 28.6667 37.083C28.6667 36.1165 29.4502 35.333 30.4167 35.333C31.3832 35.333 32.1667 36.1165 32.1667 37.083ZM31 37.083C31 36.7608 30.7389 36.4997 30.4167 36.4997C30.0945 36.4997 29.8334 36.7608 29.8334 37.083C29.8334 37.4052 30.0945 37.6663 30.4167 37.6663C30.7389 37.6663 31 37.4052 31 37.083Z" fill="white"/>
<path id="Shape_3" d="M19.9167 22.5C20.0714 22.5 20.2197 22.4385 20.3291 22.3291L21.4957 21.1624C21.7168 20.9335 21.7136 20.5697 21.4886 20.3447C21.2636 20.1197 20.8998 20.1165 20.6709 20.3376L19.5042 21.5042C19.3375 21.6711 19.2876 21.9219 19.3778 22.1399C19.4681 22.3578 19.6808 22.4999 19.9167 22.5Z" fill="white"/>
<path id="Shape_4" d="M25.5791 20.3378C25.3513 20.1101 24.9821 20.1101 24.7543 20.3378L19.5043 25.5878C19.3526 25.7342 19.2918 25.9511 19.3452 26.1551C19.3986 26.359 19.5579 26.5183 19.7618 26.5717C19.9658 26.6251 20.1826 26.5643 20.3291 26.4126L25.5791 21.1626C25.8068 20.9348 25.8068 20.5656 25.5791 20.3378Z" fill="white"/>
</g>
</g>
</g>
<defs>
<linearGradient id="paint0_linear_0_153" x1="0" y1="0" x2="0" y2="64" gradientUnits="userSpaceOnUse">
<stop stop-color="#4FD1A2"/>
<stop offset="1" stop-color="#27A469"/>
</linearGradient>
</defs>
</svg>
